<svg xmlns="http://www.w3.org/2000/svg" xmlns:xlink="http://www.w3.org/1999/xlink" width="1920" height="1960" viewBox="0 0 1920 1960">
  <defs>
    <clipPath id="clip-STEP_3_5">
      <rect width="1920" height="1960"/>
    </clipPath>
  </defs>
  <g id="STEP_3_5" data-name="STEP 3 – 5" clip-path="url(#clip-STEP_3_5)">
    <rect width="1920" height="1960" fill="#fff"/>
    <g id="Group_359" data-name="Group 359" transform="translate(-75 867)">
      <rect id="Rectangle_64" data-name="Rectangle 64" width="1920" height="1215" transform="translate(75 -67)" fill="#e4f1f0"/>
      <ellipse id="Ellipse_1" data-name="Ellipse 1" cx="33.5" cy="31.5" rx="33.5" ry="31.5" transform="translate(246 420)" fill="#fff" opacity="0.703"/>
      <ellipse id="Ellipse_2" data-name="Ellipse 2" cx="34.5" cy="31.5" rx="34.5" ry="31.5" transform="translate(408 658)" fill="#fff" opacity="0.703"/>
      <ellipse id="Ellipse_4" data-name="Ellipse 4" cx="34.5" cy="31.5" rx="34.5" ry="31.5" transform="translate(1696 119)" fill="#fff" opacity="0.703"/>
      <ellipse id="Ellipse_22" data-name="Ellipse 22" cx="34.5" cy="31.5" rx="34.5" ry="31.5" transform="translate(1799 540)" fill="#fff" opacity="0.703"/>
      <ellipse id="Ellipse_5" data-name="Ellipse 5" cx="34.5" cy="31.5" rx="34.5" ry="31.5" transform="translate(1059 910)" fill="#fff" opacity="0.703"/>
      <ellipse id="Ellipse_6" data-name="Ellipse 6" cx="33.5" cy="31.5" rx="33.5" ry="31.5" transform="translate(1526 714)" fill="#fff" opacity="0.703"/>
      <ellipse id="Ellipse_23" data-name="Ellipse 23" cx="34.5" cy="31.5" rx="34.5" ry="31.5" transform="translate(1792 934)" fill="#fff" opacity="0.703"/>
      <ellipse id="Ellipse_7" data-name="Ellipse 7" cx="34.5" cy="31.5" rx="34.5" ry="31.5" transform="translate(713 699)" fill="#fff" opacity="0.703"/>
      <ellipse id="Ellipse_8" data-name="Ellipse 8" cx="17" cy="16" rx="17" ry="16" transform="translate(581 973)" fill="#fff" opacity="0.703"/>
      <ellipse id="Ellipse_26" data-name="Ellipse 26" cx="17" cy="16" rx="17" ry="16" transform="translate(764 887)" fill="#fff" opacity="0.703"/>
      <ellipse id="Ellipse_9" data-name="Ellipse 9" cx="18" cy="16" rx="18" ry="16" transform="translate(286 617)" fill="#fff" opacity="0.703"/>
      <ellipse id="Ellipse_10" data-name="Ellipse 10" cx="17" cy="16" rx="17" ry="16" transform="translate(355 348)" fill="#fff" opacity="0.703"/>
      <ellipse id="Ellipse_11" data-name="Ellipse 11" cx="18" cy="16" rx="18" ry="16" transform="translate(163 293)" fill="#fff" opacity="0.703"/>
      <ellipse id="Ellipse_12" data-name="Ellipse 12" cx="18" cy="16" rx="18" ry="16" transform="translate(1644 250)" fill="#fff" opacity="0.703"/>
      <ellipse id="Ellipse_13" data-name="Ellipse 13" cx="17" cy="16" rx="17" ry="16" transform="translate(1765 777)" fill="#fff" opacity="0.703"/>
      <ellipse id="Ellipse_14" data-name="Ellipse 14" cx="17" cy="16" rx="17" ry="16" transform="translate(1402 642)" fill="#fff" opacity="0.703"/>
      <ellipse id="Ellipse_24" data-name="Ellipse 24" cx="17" cy="16" rx="17" ry="16" transform="translate(1270 793)" fill="#fff" opacity="0.703"/>
      <ellipse id="Ellipse_21" data-name="Ellipse 21" cx="17" cy="16" rx="17" ry="16" transform="translate(1843 316)" fill="#fff" opacity="0.703"/>
      <circle id="Ellipse_15" data-name="Ellipse 15" cx="8" cy="8" r="8" transform="translate(1420 989)" fill="#fff" opacity="0.703"/>
      <circle id="Ellipse_16" data-name="Ellipse 16" cx="8" cy="8" r="8" transform="translate(960 754)" fill="#fff" opacity="0.703"/>
      <circle id="Ellipse_17" data-name="Ellipse 17" cx="8" cy="8" r="8" transform="translate(147 524)" fill="#fff" opacity="0.703"/>
      <ellipse id="Ellipse_25" data-name="Ellipse 25" cx="9" cy="8" rx="9" ry="8" transform="translate(262 199)" fill="#fff" opacity="0.703"/>
      <ellipse id="Ellipse_18" data-name="Ellipse 18" cx="9" cy="8" rx="9" ry="8" transform="translate(304 887)" fill="#fff" opacity="0.703"/>
      <circle id="Ellipse_19" data-name="Ellipse 19" cx="8" cy="8" r="8" transform="translate(550 809)" fill="#fff" opacity="0.703"/>
      <ellipse id="Ellipse_20" data-name="Ellipse 20" cx="9" cy="8" rx="9" ry="8" transform="translate(1722 404)" fill="#fff" opacity="0.703"/>
    </g>
    <g id="Group_201" data-name="Group 201" transform="translate(-75 30)">
      <rect id="Rectangle_64-2" data-name="Rectangle 64" width="1920" height="1215" transform="translate(75 -67)" fill="#e4f1f0"/>
      <ellipse id="Ellipse_1-2" data-name="Ellipse 1" cx="33.5" cy="31.5" rx="33.5" ry="31.5" transform="translate(246 420)" fill="#fff" opacity="0.703"/>
      <ellipse id="Ellipse_2-2" data-name="Ellipse 2" cx="34.5" cy="31.5" rx="34.5" ry="31.5" transform="translate(408 658)" fill="#fff" opacity="0.703"/>
      <ellipse id="Ellipse_4-2" data-name="Ellipse 4" cx="34.5" cy="31.5" rx="34.5" ry="31.5" transform="translate(1696 119)" fill="#fff" opacity="0.703"/>
      <ellipse id="Ellipse_22-2" data-name="Ellipse 22" cx="34.5" cy="31.5" rx="34.5" ry="31.5" transform="translate(1799 540)" fill="#fff" opacity="0.703"/>
      <ellipse id="Ellipse_5-2" data-name="Ellipse 5" cx="34.5" cy="31.5" rx="34.5" ry="31.5" transform="translate(1059 910)" fill="#fff" opacity="0.703"/>
      <ellipse id="Ellipse_6-2" data-name="Ellipse 6" cx="33.5" cy="31.5" rx="33.5" ry="31.5" transform="translate(1526 714)" fill="#fff" opacity="0.703"/>
      <ellipse id="Ellipse_23-2" data-name="Ellipse 23" cx="34.5" cy="31.5" rx="34.5" ry="31.5" transform="translate(1792 934)" fill="#fff" opacity="0.703"/>
      <ellipse id="Ellipse_7-2" data-name="Ellipse 7" cx="34.5" cy="31.5" rx="34.5" ry="31.5" transform="translate(713 699)" fill="#fff" opacity="0.703"/>
      <ellipse id="Ellipse_8-2" data-name="Ellipse 8" cx="17" cy="16" rx="17" ry="16" transform="translate(581 973)" fill="#fff" opacity="0.703"/>
      <ellipse id="Ellipse_26-2" data-name="Ellipse 26" cx="17" cy="16" rx="17" ry="16" transform="translate(764 887)" fill="#fff" opacity="0.703"/>
      <ellipse id="Ellipse_9-2" data-name="Ellipse 9" cx="18" cy="16" rx="18" ry="16" transform="translate(286 617)" fill="#fff" opacity="0.703"/>
      <ellipse id="Ellipse_10-2" data-name="Ellipse 10" cx="17" cy="16" rx="17" ry="16" transform="translate(355 348)" fill="#fff" opacity="0.703"/>
      <ellipse id="Ellipse_11-2" data-name="Ellipse 11" cx="18" cy="16" rx="18" ry="16" transform="translate(163 293)" fill="#fff" opacity="0.703"/>
      <ellipse id="Ellipse_12-2" data-name="Ellipse 12" cx="18" cy="16" rx="18" ry="16" transform="translate(1644 250)" fill="#fff" opacity="0.703"/>
      <ellipse id="Ellipse_13-2" data-name="Ellipse 13" cx="17" cy="16" rx="17" ry="16" transform="translate(1765 777)" fill="#fff" opacity="0.703"/>
      <ellipse id="Ellipse_14-2" data-name="Ellipse 14" cx="17" cy="16" rx="17" ry="16" transform="translate(1402 642)" fill="#fff" opacity="0.703"/>
      <ellipse id="Ellipse_24-2" data-name="Ellipse 24" cx="17" cy="16" rx="17" ry="16" transform="translate(1270 793)" fill="#fff" opacity="0.703"/>
      <ellipse id="Ellipse_21-2" data-name="Ellipse 21" cx="17" cy="16" rx="17" ry="16" transform="translate(1843 316)" fill="#fff" opacity="0.703"/>
      <circle id="Ellipse_15-2" data-name="Ellipse 15" cx="8" cy="8" r="8" transform="translate(1420 989)" fill="#fff" opacity="0.703"/>
      <circle id="Ellipse_16-2" data-name="Ellipse 16" cx="8" cy="8" r="8" transform="translate(960 754)" fill="#fff" opacity="0.703"/>
      <circle id="Ellipse_17-2" data-name="Ellipse 17" cx="8" cy="8" r="8" transform="translate(147 524)" fill="#fff" opacity="0.703"/>
      <ellipse id="Ellipse_25-2" data-name="Ellipse 25" cx="9" cy="8" rx="9" ry="8" transform="translate(262 199)" fill="#fff" opacity="0.703"/>
      <ellipse id="Ellipse_18-2" data-name="Ellipse 18" cx="9" cy="8" rx="9" ry="8" transform="translate(304 887)" fill="#fff" opacity="0.703"/>
      <circle id="Ellipse_19-2" data-name="Ellipse 19" cx="8" cy="8" r="8" transform="translate(550 809)" fill="#fff" opacity="0.703"/>
      <ellipse id="Ellipse_20-2" data-name="Ellipse 20" cx="9" cy="8" rx="9" ry="8" transform="translate(1722 404)" fill="#fff" opacity="0.703"/>
    </g>
  </g>
</svg>
